P3
4
1
255
0
0
0
0
0
0
0
0
0
255
0
255

